<svg width="512" height="512" viewBox="0 0 512 512" xmlns="http://www.w3.org/2000/svg">
  <defs>
    <linearGradient id="g" x1="0" y1="0" x2="1" y2="1">
      <stop offset="0" stop-color="#0E5E7E"/>
      <stop offset="1" stop-color="#0A3E55"/>
    </linearGradient>
  </defs>
  <rect width="512" height="512" fill="none"/>
  <circle cx="256" cy="256" r="222" fill="none" stroke="url(#g)" stroke-width="28"/>
  <g fill="url(#g)" font-family="Arial, Helvetica, sans-serif" font-weight="800" letter-spacing="6">
    <text x="256" y="138" font-size="54" text-anchor="middle">ASSET</text>
    <text x="256" y="410" font-size="54" text-anchor="middle">REPORT</text>
  </g>
  <g fill="url(#g)">
    <path d="M196 206c-10-10-10-26 0-36s26-10 36 0l24 24 24-24c10-10 26-10 36 0s10 26 0 36l-24 24 24 24c10 10 10 26 0 36s-26 10-36 0l-24-24-24 24c-10 10-26 10-36 0s-10-26 0-36l24-24-24-24z"/>
  </g>
</svg>
