<svg width="512" height="512" viewBox="0 0 512 512" xmlns="http://www.w3.org/2000/svg">
  <defs>
    <linearGradient id="brand" x1="64" y1="64" x2="448" y2="448" gradientUnits="userSpaceOnUse">
      <stop offset="0" stop-color="#0E5E7E"/>
      <stop offset="1" stop-color="#0A3E55"/>
    </linearGradient>
    <filter id="soft" x="-20%" y="-20%" width="140%" height="140%">
      <feDropShadow dx="0" dy="10" stdDeviation="14" flood-color="#0A3E55" flood-opacity="0.18"/>
    </filter>
  </defs>
  <rect width="512" height="512" rx="128" fill="url(#brand)" filter="url(#soft)"/>
  <path d="M170 176c-10-10-10-26 0-36s26-10 36 0l50 50 50-50c10-10 26-10 36 0s10 26 0 36l-50 50 50 50c10 10 10 26 0 36s-26 10-36 0l-50-50-50 50c-10 10-26 10-36 0s-10-26 0-36l50-50-50-50z" fill="#FFFFFF" fill-opacity="0.92"/>
  <path d="M148 364c36 24 74 36 108 36s72-12 108-36" fill="none" stroke="#FFFFFF" stroke-opacity="0.92" stroke-width="18" stroke-linecap="round"/>
</svg>
